<?xml version="1.0" encoding="UTF-8"?>
<svg width="88" height="88" viewBox="0 0 88 88" fill="none" xmlns="http://www.w3.org/2000/svg">
  <defs>
    <linearGradient id="bg" x1="12" y1="10" x2="76" y2="78" gradientUnits="userSpaceOnUse">
      <stop offset="0%" stop-color="#5C7CFF"/>
      <stop offset="100%" stop-color="#78E0FF"/>
    </linearGradient>
  </defs>
  <rect x="6" y="6" width="76" height="76" rx="20" fill="url(#bg)"/>
  <rect x="19" y="23" width="50" height="38" rx="12" fill="#FFFFFF" fill-opacity="0.12" stroke="#FFFFFF" stroke-width="2"/>
  <rect x="19" y="23" width="50" height="10" rx="7" fill="#FFFFFF" fill-opacity="0.9"/>
  <rect x="30" y="17" width="6.5" height="12" rx="3.25" fill="#FFFFFF"/>
  <rect x="51.5" y="17" width="6.5" height="12" rx="3.25" fill="#FFFFFF"/>
  <path d="M34 42.5C34 39.46 36.46 37 39.5 37C41.64 37 43.48 38.24 44.5 40C45.52 38.24 47.36 37 49.5 37C52.54 37 55 39.46 55 42.5C55 49.12 48.16 53.92 44.5 57C40.84 53.92 34 49.12 34 42.5Z" fill="#FFFFFF"/>
  <circle cx="58" cy="55.5" r="5.5" fill="#FFFFFF"/>
  <path d="M58 52V55.5" stroke="#5C7CFF" stroke-width="2" stroke-linecap="round"/>
  <path d="M58 55.5H61" stroke="#5C7CFF" stroke-width="2" stroke-linecap="round"/>
</svg>

